# Blender v2.81 (sub 16) OBJ File: 'Circle Boarder.blend'
# www.blender.org
mtllib Circle Boarder.mtl
o Cylinder.001
v -0.025000 0.000000 -0.500000
v 0.025000 -0.000000 -0.500000
v -0.025000 -0.097545 -0.490393
v 0.025000 -0.097545 -0.490393
v -0.025000 -0.191342 -0.461940
v 0.025000 -0.191342 -0.461940
v -0.025000 -0.277785 -0.415735
v 0.025000 -0.277785 -0.415735
v -0.025000 -0.353553 -0.353553
v 0.025000 -0.353553 -0.353553
v -0.025000 -0.415735 -0.277785
v 0.025000 -0.415735 -0.277785
v -0.025000 -0.461940 -0.191342
v 0.025000 -0.461940 -0.191342
v -0.025000 -0.490393 -0.097545
v 0.025000 -0.490393 -0.097545
v -0.025000 -0.500000 -0.000000
v 0.025000 -0.500000 -0.000000
v -0.025000 -0.490393 0.097545
v 0.025000 -0.490393 0.097545
v -0.025000 -0.461940 0.191342
v 0.025000 -0.461940 0.191342
v -0.025000 -0.415735 0.277785
v 0.025000 -0.415735 0.277785
v -0.025000 -0.353553 0.353553
v 0.025000 -0.353553 0.353553
v -0.025000 -0.277785 0.415735
v 0.025000 -0.277785 0.415735
v -0.025000 -0.191342 0.461940
v 0.025000 -0.191342 0.461940
v -0.025000 -0.097545 0.490393
v 0.025000 -0.097545 0.490393
v -0.025000 0.000000 0.500000
v 0.025000 0.000000 0.500000
v -0.025000 0.097545 0.490393
v 0.025000 0.097545 0.490393
v -0.025000 0.191342 0.461940
v 0.025000 0.191342 0.461940
v -0.025000 0.277785 0.415735
v 0.025000 0.277785 0.415735
v -0.025000 0.353554 0.353553
v 0.025000 0.353554 0.353553
v -0.025000 0.415735 0.277785
v 0.025000 0.415735 0.277785
v -0.025000 0.461940 0.191341
v 0.025000 0.461940 0.191341
v -0.025000 0.490393 0.097545
v 0.025000 0.490393 0.097545
v -0.025000 0.500000 -0.000000
v 0.025000 0.500000 -0.000000
v -0.025000 0.490393 -0.097546
v 0.025000 0.490393 -0.097546
v -0.025000 0.461940 -0.191342
v 0.025000 0.461940 -0.191342
v -0.025000 0.415734 -0.277786
v 0.025000 0.415734 -0.277786
v -0.025000 0.353553 -0.353554
v 0.025000 0.353553 -0.353554
v -0.025000 0.277785 -0.415735
v 0.025000 0.277785 -0.415735
v -0.025000 0.191341 -0.461940
v 0.025000 0.191341 -0.461940
v -0.025000 0.097544 -0.490393
v 0.025000 0.097544 -0.490393
v -0.025000 0.000000 -0.563993
v 0.025000 -0.000000 -0.563993
v -0.025000 -0.110030 -0.553156
v 0.025000 -0.110030 -0.553156
v -0.025000 -0.215831 -0.521062
v 0.025000 -0.215831 -0.521062
v -0.025000 -0.313338 -0.468943
v 0.025000 -0.313338 -0.468943
v -0.025000 -0.398803 -0.398803
v 0.025000 -0.398803 -0.398803
v -0.025000 -0.468943 -0.313338
v 0.025000 -0.468943 -0.313338
v -0.025000 -0.521062 -0.215831
v 0.025000 -0.521062 -0.215831
v -0.025000 -0.553156 -0.110030
v 0.025000 -0.553156 -0.110030
v -0.025000 -0.563993 -0.000000
v 0.025000 -0.563993 -0.000000
v -0.025000 -0.553156 0.110030
v 0.025000 -0.553156 0.110030
v -0.025000 -0.521062 0.215831
v 0.025000 -0.521062 0.215831
v -0.025000 -0.468943 0.313338
v 0.025000 -0.468943 0.313338
v -0.025000 -0.398803 0.398803
v 0.025000 -0.398803 0.398803
v -0.025000 -0.313338 0.468943
v 0.025000 -0.313338 0.468943
v -0.025000 -0.215831 0.521062
v 0.025000 -0.215831 0.521062
v -0.025000 -0.110029 0.553156
v 0.025000 -0.110029 0.553156
v -0.025000 0.000000 0.563993
v 0.025000 0.000000 0.563993
v -0.025000 0.110030 0.553156
v 0.025000 0.110030 0.553156
v -0.025000 0.215831 0.521062
v 0.025000 0.215831 0.521062
v -0.025000 0.313338 0.468943
v 0.025000 0.313338 0.468943
v -0.025000 0.398804 0.398803
v 0.025000 0.398804 0.398803
v -0.025000 0.468944 0.313338
v 0.025000 0.468944 0.313338
v -0.025000 0.521062 0.215830
v 0.025000 0.521062 0.215830
v -0.025000 0.553156 0.110029
v 0.025000 0.553156 0.110029
v -0.025000 0.563993 -0.000001
v 0.025000 0.563993 -0.000001
v -0.025000 0.553156 -0.110030
v 0.025000 0.553156 -0.110030
v -0.025000 0.521062 -0.215831
v 0.025000 0.521062 -0.215831
v -0.025000 0.468943 -0.313338
v 0.025000 0.468943 -0.313338
v -0.025000 0.398803 -0.398804
v 0.025000 0.398803 -0.398804
v -0.025000 0.313337 -0.468944
v 0.025000 0.313337 -0.468944
v -0.025000 0.215830 -0.521062
v 0.025000 0.215830 -0.521062
v -0.025000 0.110029 -0.553156
v 0.025000 0.110029 -0.553156
vt 0.472885 0.458640
vt 0.447139 0.486330
vt 0.449862 0.495965
vt 0.475564 0.468196
vt 0.421995 0.512911
vt 0.424938 0.522932
vt 0.398279 0.537111
vt 0.401662 0.547904
vt 0.376668 0.557588
vt 0.380817 0.569729
vt 0.357537 0.572756
vt 0.363021 0.587245
vt 0.340534 0.580117
vt 0.348526 0.599017
vt 0.322894 0.573379
vt 0.336246 0.601707
vt 0.292838 0.530889
vt 0.307569 0.561643
vt 0.256991 0.463903
vt 0.236410 0.432548
vt 0.492681 0.878441
vt 0.484143 0.845324
vt 0.470953 0.826970
vt 0.472100 0.847085
vt 0.489034 0.822362
vt 0.479321 0.810122
vt 0.500888 0.799394
vt 0.492925 0.790233
vt 0.517496 0.774220
vt 0.510512 0.766781
vt 0.537564 0.746653
vt 0.531148 0.740213
vt 0.560013 0.717210
vt 0.553907 0.711315
vt 0.583804 0.686715
vt 0.577819 0.681033
vt 0.607910 0.656138
vt 0.601880 0.650377
vt 0.631311 0.626494
vt 0.625062 0.620346
vt 0.653021 0.598766
vt 0.646332 0.591846
vt 0.672095 0.573827
vt 0.664641 0.565560
vt 0.687617 0.552312
vt 0.678828 0.541697
vt 0.698558 0.534288
vt 0.687260 0.519261
vt 0.702855 0.517558
vt 0.686197 0.493104
vt 0.681258 0.469199
vt 0.663221 0.442319
vt 0.607411 0.343254
vt 0.624687 0.378482
vt 0.593912 0.337609
vt 0.603795 0.359837
vt 0.580736 0.345999
vt 0.587143 0.362112
vt 0.564434 0.361144
vt 0.569090 0.374178
vt 0.544902 0.381176
vt 0.548579 0.392488
vt 0.522632 0.404870
vt 0.525741 0.415183
vt 0.498346 0.431083
vt 0.501146 0.440851
vt 0.473851 0.458228
vt 0.476039 0.466920
vt 0.447147 0.498418
vt 0.444919 0.489655
vt 0.419118 0.528984
vt 0.416695 0.519879
vt 0.392936 0.557284
vt 0.390124 0.547493
vt 0.369491 0.582021
vt 0.365999 0.571035
vt 0.349482 0.601892
vt 0.344805 0.588821
vt 0.333199 0.615290
vt 0.326293 0.598300
vt 0.319450 0.618504
vt 0.307785 0.593143
vt 0.289190 0.576984
vt 0.276942 0.550597
vt 0.221746 0.453919
vt 0.240151 0.481446
vt 0.475841 0.895983
vt 0.457436 0.868456
vt 0.456354 0.846137
vt 0.468247 0.862212
vt 0.465867 0.827264
vt 0.474670 0.837905
vt 0.481277 0.804944
vt 0.488526 0.812850
vt 0.501181 0.778606
vt 0.507561 0.784984
vt 0.524529 0.748762
vt 0.530406 0.754254
vt 0.550280 0.716305
vt 0.555881 0.721313
vt 0.577344 0.682309
vt 0.582839 0.687128
vt 0.604594 0.647922
vt 0.610128 0.652812
vt 0.630880 0.614289
vt 0.636609 0.619521
vt 0.655053 0.582458
vt 0.661172 0.588376
vt 0.675957 0.553251
vt 0.682755 0.560364
vt 0.692345 0.527011
vt 0.700329 0.536209
vt 0.702525 0.502879
vt 0.712737 0.515996
vt 0.702715 0.475818
vt 0.717687 0.497306
vt 0.679859 0.423916
vt 0.695413 0.446429
vt 0.640036 0.358317
vt 0.624937 0.326916
vt 0.618508 0.340868
vt 0.609921 0.320921
vt 0.600630 0.345029
vt 0.595133 0.330515
vt 0.580752 0.359492
vt 0.576809 0.347712
vt 0.557917 0.380674
vt 0.554843 0.370423
vt 0.532364 0.406640
vt 0.529794 0.397276
vt 0.504774 0.435863
vt 0.502479 0.426982
vn 0.0000 0.0980 0.9952
vn 0.0000 0.2903 0.9569
vn 0.0000 0.4714 0.8819
vn 0.0000 0.6344 0.7730
vn 0.0000 0.7730 0.6344
vn 0.0000 0.8819 0.4714
vn 0.0000 0.9569 0.2903
vn 0.0000 0.9952 0.0980
vn 0.0000 0.9952 -0.0980
vn 0.0000 0.9569 -0.2903
vn 0.0000 0.8819 -0.4714
vn 0.0000 0.7730 -0.6344
vn 0.0000 0.6344 -0.7730
vn 0.0000 0.4714 -0.8819
vn 0.0000 0.2903 -0.9569
vn 0.0000 0.0980 -0.9952
vn 0.0000 -0.0980 -0.9952
vn 0.0000 -0.2903 -0.9569
vn 0.0000 -0.4714 -0.8819
vn 0.0000 -0.6344 -0.7730
vn 0.0000 -0.7730 -0.6344
vn 0.0000 -0.8819 -0.4714
vn 0.0000 -0.9569 -0.2903
vn 0.0000 -0.9952 -0.0980
vn 0.0000 -0.9952 0.0980
vn 0.0000 -0.9569 0.2903
vn 0.0000 -0.8819 0.4714
vn 0.0000 -0.7730 0.6344
vn 0.0000 -0.6344 0.7730
vn 0.0000 -0.4714 0.8819
vn 0.0000 -0.2903 0.9569
vn 0.0000 -0.0980 0.9952
vn -1.0000 0.0000 0.0000
vn 1.0000 0.0000 0.0000
usemtl Material
s off
f 1/1/1 3/2/1 4/3/1 2/4/1
f 3/2/2 5/5/2 6/6/2 4/3/2
f 5/5/3 7/7/3 8/8/3 6/6/3
f 7/7/4 9/9/4 10/10/4 8/8/4
f 9/9/5 11/11/5 12/12/5 10/10/5
f 11/11/6 13/13/6 14/14/6 12/12/6
f 13/13/7 15/15/7 16/16/7 14/14/7
f 15/15/8 17/17/8 18/18/8 16/16/8
f 17/17/9 19/19/9 20/20/9 18/18/9
f 19/21/10 21/22/10 22/23/10 20/24/10
f 21/22/11 23/25/11 24/26/11 22/23/11
f 23/25/12 25/27/12 26/28/12 24/26/12
f 25/27/13 27/29/13 28/30/13 26/28/13
f 27/29/14 29/31/14 30/32/14 28/30/14
f 29/31/15 31/33/15 32/34/15 30/32/15
f 31/33/16 33/35/16 34/36/16 32/34/16
f 33/35/17 35/37/17 36/38/17 34/36/17
f 35/37/18 37/39/18 38/40/18 36/38/18
f 37/39/19 39/41/19 40/42/19 38/40/19
f 39/41/20 41/43/20 42/44/20 40/42/20
f 41/43/21 43/45/21 44/46/21 42/44/21
f 43/45/22 45/47/22 46/48/22 44/46/22
f 45/47/23 47/49/23 48/50/23 46/48/23
f 47/49/24 49/51/24 50/52/24 48/50/24
f 49/51/25 51/53/25 52/54/25 50/52/25
f 51/53/26 53/55/26 54/56/26 52/54/26
f 53/55/27 55/57/27 56/58/27 54/56/27
f 55/57/28 57/59/28 58/60/28 56/58/28
f 57/59/29 59/61/29 60/62/29 58/60/29
f 59/61/30 61/63/30 62/64/30 60/62/30
f 61/63/31 63/65/31 64/66/31 62/64/31
f 63/65/32 1/1/32 2/4/32 64/66/32
f 65/67/17 66/68/17 68/69/17 67/70/17
f 67/70/18 68/69/18 70/71/18 69/72/18
f 69/72/19 70/71/19 72/73/19 71/74/19
f 71/74/20 72/73/20 74/75/20 73/76/20
f 73/76/21 74/75/21 76/77/21 75/78/21
f 75/78/22 76/77/22 78/79/22 77/80/22
f 77/80/23 78/79/23 80/81/23 79/82/23
f 79/82/24 80/81/24 82/83/24 81/84/24
f 81/84/25 82/83/25 84/85/25 83/86/25
f 83/87/26 84/88/26 86/89/26 85/90/26
f 85/90/27 86/89/27 88/91/27 87/92/27
f 87/92/28 88/91/28 90/93/28 89/94/28
f 89/94/29 90/93/29 92/95/29 91/96/29
f 91/96/30 92/95/30 94/97/30 93/98/30
f 93/98/31 94/97/31 96/99/31 95/100/31
f 95/100/32 96/99/32 98/101/32 97/102/32
f 97/102/1 98/101/1 100/103/1 99/104/1
f 99/104/2 100/103/2 102/105/2 101/106/2
f 101/106/3 102/105/3 104/107/3 103/108/3
f 103/108/4 104/107/4 106/109/4 105/110/4
f 105/110/5 106/109/5 108/111/5 107/112/5
f 107/112/6 108/111/6 110/113/6 109/114/6
f 109/114/7 110/113/7 112/115/7 111/116/7
f 111/116/8 112/115/8 114/117/8 113/118/8
f 113/118/9 114/117/9 116/119/9 115/120/9
f 115/120/10 116/119/10 118/121/10 117/122/10
f 117/122/11 118/121/11 120/123/11 119/124/11
f 119/124/12 120/123/12 122/125/12 121/126/12
f 121/126/13 122/125/13 124/127/13 123/128/13
f 123/128/14 124/127/14 126/129/14 125/130/14
f 125/130/15 126/129/15 128/131/15 127/132/15
f 127/132/16 128/131/16 66/68/16 65/67/16
f 71/74/33 7/7/33 5/5/33 69/72/33
f 73/76/33 9/9/33 7/7/33 71/74/33
f 75/78/33 11/11/33 9/9/33 73/76/33
f 77/80/33 13/13/33 11/11/33 75/78/33
f 79/82/33 15/15/33 13/13/33 77/80/33
f 81/84/33 17/17/33 15/15/33 79/82/33
f 83/86/33 19/19/33 17/17/33 81/84/33
f 85/90/33 21/22/33 19/21/33 83/87/33
f 87/92/33 23/25/33 21/22/33 85/90/33
f 89/94/33 25/27/33 23/25/33 87/92/33
f 91/96/33 27/29/33 25/27/33 89/94/33
f 93/98/33 29/31/33 27/29/33 91/96/33
f 95/100/33 31/33/33 29/31/33 93/98/33
f 97/102/33 33/35/33 31/33/33 95/100/33
f 99/104/33 35/37/33 33/35/33 97/102/33
f 101/106/33 37/39/33 35/37/33 99/104/33
f 103/108/33 39/41/33 37/39/33 101/106/33
f 105/110/33 41/43/33 39/41/33 103/108/33
f 107/112/33 43/45/33 41/43/33 105/110/33
f 109/114/33 45/47/33 43/45/33 107/112/33
f 111/116/33 47/49/33 45/47/33 109/114/33
f 113/118/33 49/51/33 47/49/33 111/116/33
f 115/120/33 51/53/33 49/51/33 113/118/33
f 117/122/33 53/55/33 51/53/33 115/120/33
f 119/124/33 55/57/33 53/55/33 117/122/33
f 121/126/33 57/59/33 55/57/33 119/124/33
f 123/128/33 59/61/33 57/59/33 121/126/33
f 125/130/33 61/63/33 59/61/33 123/128/33
f 127/132/33 63/65/33 61/63/33 125/130/33
f 65/67/33 1/1/33 63/65/33 127/132/33
f 67/70/33 3/2/33 1/1/33 65/67/33
f 69/72/33 5/5/33 3/2/33 67/70/33
f 10/10/34 74/75/34 72/73/34 8/8/34
f 76/77/34 74/75/34 10/10/34 12/12/34
f 14/14/34 78/79/34 76/77/34 12/12/34
f 80/81/34 78/79/34 14/14/34 16/16/34
f 18/18/34 82/83/34 80/81/34 16/16/34
f 84/85/34 82/83/34 18/18/34 20/20/34
f 22/23/34 86/89/34 84/88/34 20/24/34
f 88/91/34 86/89/34 22/23/34 24/26/34
f 26/28/34 90/93/34 88/91/34 24/26/34
f 92/95/34 90/93/34 26/28/34 28/30/34
f 30/32/34 94/97/34 92/95/34 28/30/34
f 96/99/34 94/97/34 30/32/34 32/34/34
f 34/36/34 98/101/34 96/99/34 32/34/34
f 100/103/34 98/101/34 34/36/34 36/38/34
f 38/40/34 102/105/34 100/103/34 36/38/34
f 104/107/34 102/105/34 38/40/34 40/42/34
f 42/44/34 106/109/34 104/107/34 40/42/34
f 108/111/34 106/109/34 42/44/34 44/46/34
f 46/48/34 110/113/34 108/111/34 44/46/34
f 112/115/34 110/113/34 46/48/34 48/50/34
f 50/52/34 114/117/34 112/115/34 48/50/34
f 116/119/34 114/117/34 50/52/34 52/54/34
f 54/56/34 118/121/34 116/119/34 52/54/34
f 120/123/34 118/121/34 54/56/34 56/58/34
f 58/60/34 122/125/34 120/123/34 56/58/34
f 124/127/34 122/125/34 58/60/34 60/62/34
f 62/64/34 126/129/34 124/127/34 60/62/34
f 128/131/34 126/129/34 62/64/34 64/66/34
f 2/4/34 66/68/34 128/131/34 64/66/34
f 68/69/34 66/68/34 2/4/34 4/3/34
f 6/6/34 70/71/34 68/69/34 4/3/34
f 72/73/34 70/71/34 6/6/34 8/8/34
