# Blender v2.81 (sub 16) OBJ File: 'Pipe.blend'
# www.blender.org
mtllib Pipe.mtl
o Cube
v -0.025000 0.000000 -0.500000
v -0.025000 -0.000000 0.500000
v -0.025000 0.050000 -0.500000
v -0.025000 0.050000 0.500000
v 0.025000 0.000000 -0.500000
v 0.025000 -0.000000 0.500000
v 0.025000 0.050000 -0.500000
v 0.025000 0.050000 0.500000
vt 0.297322 0.224425
vt 0.016992 0.566866
vt 0.255560 0.969253
vt 0.535890 0.626812
vt 0.297322 0.224425
vt 0.016992 0.566866
vt 0.255560 0.969253
vt 0.535890 0.626812
vt 0.016992 0.566866
vt 0.297322 0.224425
vt 0.535890 0.626812
vt 0.255560 0.969253
vt 0.016992 0.566866
vt 0.255560 0.969253
vt 0.297322 0.224425
vt 0.535890 0.626812
vn -1.0000 0.0000 0.0000
vn 0.0000 1.0000 0.0000
vn 1.0000 0.0000 0.0000
vn 0.0000 -1.0000 -0.0000
vn 0.0000 0.0000 -1.0000
vn 0.0000 0.0000 1.0000
usemtl Material
s off
f 1/1/1 2/2/1 4/3/1 3/4/1
f 3/5/2 4/6/2 8/7/2 7/8/2
f 7/8/3 8/7/3 6/9/3 5/10/3
f 5/11/4 6/12/4 2/2/4 1/1/4
f 3/13/5 7/14/5 5/11/5 1/1/5
f 8/7/6 4/6/6 2/15/6 6/16/6
