# Blender v2.81 (sub 16) OBJ File: 'Present.blend'
# www.blender.org
mtllib Present.mtl
o Cube
v -0.950000 -0.950000 0.950000
v -0.950000 0.950000 0.950000
v -0.950000 -0.950000 -0.950000
v -0.950000 0.950000 -0.950000
v 0.950000 -0.950000 0.950000
v 0.950000 0.950000 0.950000
v 0.950000 -0.950000 -0.950000
v 0.950000 0.950000 -0.950000
v -0.100000 1.000000 1.000000
v 0.100000 1.000000 1.000000
v -0.100000 1.000000 -1.000000
v 0.100000 1.000000 -1.000000
v -1.000000 -1.000000 0.100000
v -1.000000 1.000000 0.100000
v -1.000000 -1.000000 -0.100000
v -1.000000 1.000000 -0.100000
v -1.000000 1.000000 0.100000
v 1.000000 1.000000 0.100000
v -1.000000 1.000000 -0.100000
v 1.000000 1.000000 -0.100000
v 0.100000 1.000000 -1.000000
v 0.100000 -1.000000 -1.000000
v -0.100000 1.000000 -1.000000
v -0.100000 -1.000000 -1.000000
v 1.000000 1.000000 0.100000
v 1.000000 -1.000000 0.100000
v 1.000000 1.000000 -0.100000
v 1.000000 -1.000000 -0.100000
v -0.100000 1.000000 1.000000
v -0.100000 -1.000000 1.000000
v 0.100000 1.000000 1.000000
v 0.100000 -1.000000 1.000000
vt 0.352025 0.118650
vt 0.046958 0.507804
vt 0.318069 0.945699
vt 0.623136 0.556545
vt 0.352025 0.118650
vt 0.046958 0.507804
vt 0.318069 0.945699
vt 0.623136 0.556545
vt 0.046958 0.507804
vt 0.352025 0.118650
vt 0.623136 0.556545
vt 0.318069 0.945699
vt 0.020198 0.541940
vt 0.291308 0.979835
vt 0.596375 0.590681
vt 0.325265 0.152786
vt 0.082822 0.972216
vt 0.022172 0.874256
vt 0.090418 0.787200
vt 0.151067 0.885160
vt 0.793556 0.054846
vt 0.815635 0.030665
vt 0.984097 0.347582
vt 0.962018 0.371763
vt 0.779518 0.028437
vt 0.947980 0.345353
vt 0.970058 0.321172
vt 0.801596 0.004256
vt 0.962270 0.371540
vt 0.793341 0.055136
vt 0.815383 0.030888
vt 0.984312 0.347292
vt 0.970058 0.321172
vt 0.801596 0.004256
vt 0.779518 0.028437
vt 0.947980 0.345353
vt 0.947980 0.345353
vt 0.779518 0.028437
vt 0.801596 0.004256
vt 0.970058 0.321172
vt 0.947980 0.345353
vt 0.779518 0.028437
vt 0.801596 0.004256
vt 0.970058 0.321172
vn -1.0000 0.0000 0.0000
vn 0.0000 0.0000 -1.0000
vn 1.0000 0.0000 0.0000
vn 0.0000 0.0000 1.0000
vn 0.0000 -1.0000 0.0000
vn 0.0000 1.0000 0.0000
usemtl Material
s off
f 1/1/1 2/2/1 4/3/1 3/4/1
f 3/5/2 4/6/2 8/7/2 7/8/2
f 7/8/3 8/7/3 6/9/3 5/10/3
f 5/11/4 6/12/4 2/2/4 1/1/4
f 3/13/5 7/14/5 5/15/5 1/16/5
f 8/17/6 4/18/6 2/19/6 6/20/6
f 9/21/6 10/22/6 12/23/6 11/24/6
f 13/25/1 14/26/1 16/27/1 15/28/1
f 17/29/6 18/30/6 20/31/6 19/32/6
f 21/33/2 22/34/2 24/35/2 23/36/2
f 25/37/3 26/38/3 28/39/3 27/40/3
f 29/41/4 30/42/4 32/43/4 31/44/4
