# Blender v2.81 (sub 16) OBJ File: 'Snow Flake.blend'
# www.blender.org
mtllib Snow Flake.mtl
o Plane.000_Plane.009
v 0.146474 -0.117826 -0.000000
v 0.148346 -0.223057 0.000000
v 0.267346 -0.016943 0.000000
v 0.175277 -0.067937 -0.000000
v 0.115213 -0.099777 -0.000000
v 0.144016 -0.049889 -0.000000
v 0.270433 -0.189394 -0.000000
v 0.299236 -0.139505 -0.000000
v 0.208127 -0.153421 -0.000000
v 0.236931 -0.103533 -0.000000
v 0.208379 -0.223076 -0.000000
v 0.297379 -0.068924 0.000000
v 0.175277 0.067937 0.000000
v 0.267346 0.016943 0.000000
v 0.148346 0.223057 0.000000
v 0.146474 0.117826 0.000000
v 0.144016 0.049889 0.000000
v 0.115213 0.099777 0.000000
v 0.299236 0.139505 0.000000
v 0.270433 0.189394 0.000000
v 0.236931 0.103533 0.000000
v 0.208127 0.153421 0.000000
v 0.297379 0.068924 0.000000
v 0.208379 0.223076 0.000000
v -0.028803 -0.185763 0.000000
v -0.119000 -0.240000 0.000000
v 0.119000 -0.240000 0.000000
v 0.028803 -0.185763 0.000000
v -0.028803 -0.149666 0.000000
v 0.028803 -0.149666 0.000000
v -0.028803 -0.328898 0.000000
v 0.028803 -0.328898 0.000000
v -0.028803 -0.256954 0.000000
v 0.028803 -0.256954 0.000000
v -0.089000 -0.292000 0.000000
v 0.089000 -0.292000 0.000000
v -0.175277 -0.067937 0.000000
v -0.267346 -0.016943 0.000000
v -0.148346 -0.223057 0.000000
v -0.146474 -0.117826 0.000000
v -0.144016 -0.049889 0.000000
v -0.115213 -0.099777 0.000000
v -0.299236 -0.139505 0.000000
v -0.270433 -0.189394 0.000000
v -0.236931 -0.103533 0.000000
v -0.208127 -0.153421 0.000000
v -0.297379 -0.068924 0.000000
v -0.208379 -0.223076 0.000000
v -0.146474 0.117826 0.000000
v -0.148346 0.223057 0.000000
v -0.267346 0.016943 0.000000
v -0.175277 0.067937 0.000000
v -0.115213 0.099777 0.000000
v -0.144016 0.049889 0.000000
v -0.270433 0.189394 0.000000
v -0.299236 0.139505 0.000000
v -0.208127 0.153421 0.000000
v -0.236931 0.103533 0.000000
v -0.208379 0.223076 0.000000
v -0.297379 0.068924 0.000000
v -0.100000 0.000000 -0.000000
v 0.050000 -0.086603 -0.000000
v 0.050000 0.086603 -0.000000
v -0.050000 -0.086603 0.000000
v 0.100000 0.000000 0.000000
v -0.050000 0.086603 0.000000
v -0.050000 0.028868 0.000000
v -0.050000 -0.028868 0.000000
v -0.000000 -0.057735 -0.000000
v 0.050000 0.028868 0.000000
v 0.000000 0.057735 0.000000
v 0.050000 -0.028868 -0.000000
v -0.172819 0.000000 -0.000000
v 0.086410 -0.149666 -0.000000
v 0.086410 0.149666 -0.000000
v -0.086410 -0.149666 0.000000
v 0.172819 0.000000 0.000000
v -0.086410 0.149666 0.000000
v -0.107355 0.061982 0.000000
v -0.107355 -0.061982 0.000000
v 0.000000 -0.099777 -0.000000
v 0.107355 0.061982 0.000000
v 0.000000 0.099777 0.000000
v 0.107355 -0.061982 -0.000000
v 0.028803 0.185763 0.000000
v 0.119000 0.240000 0.000000
v -0.119000 0.240000 0.000000
v -0.028803 0.185763 0.000000
v 0.028803 0.149666 0.000000
v -0.028803 0.149666 0.000000
v 0.028803 0.328898 0.000000
v -0.028803 0.328898 0.000000
v 0.028803 0.256954 0.000000
v -0.028803 0.256954 0.000000
v 0.089000 0.292000 0.000000
v -0.089000 0.292000 0.000000
v -0.146474 -0.117826 -0.037356
v -0.148346 -0.223057 -0.037356
v -0.267346 -0.016943 -0.037356
v -0.175277 -0.067937 -0.037356
v -0.115213 -0.099777 -0.037356
v -0.144016 -0.049889 -0.037356
v -0.270433 -0.189394 -0.037356
v -0.299236 -0.139505 -0.037356
v -0.208127 -0.153421 -0.037356
v -0.236931 -0.103533 -0.037356
v -0.208379 -0.223076 -0.037356
v -0.297379 -0.068924 -0.037356
v -0.175277 0.067937 -0.037356
v -0.267346 0.016943 -0.037356
v -0.148346 0.223057 -0.037356
v -0.146474 0.117826 -0.037356
v -0.144016 0.049889 -0.037356
v -0.115213 0.099777 -0.037356
v -0.299236 0.139505 -0.037356
v -0.270433 0.189394 -0.037356
v -0.236931 0.103533 -0.037356
v -0.208127 0.153421 -0.037356
v -0.297379 0.068924 -0.037356
v -0.208379 0.223076 -0.037356
v 0.028803 -0.185763 -0.037356
v 0.119000 -0.240000 -0.037356
v -0.119000 -0.240000 -0.037356
v -0.028803 -0.185763 -0.037356
v 0.028803 -0.149666 -0.037356
v -0.028803 -0.149666 -0.037356
v 0.028803 -0.328898 -0.037356
v -0.028803 -0.328898 -0.037356
v 0.028803 -0.256954 -0.037356
v -0.028803 -0.256954 -0.037356
v 0.089000 -0.292000 -0.037356
v -0.089000 -0.292000 -0.037356
v 0.175277 -0.067937 -0.037356
v 0.267346 -0.016943 -0.037356
v 0.148346 -0.223057 -0.037356
v 0.146474 -0.117826 -0.037356
v 0.144016 -0.049889 -0.037356
v 0.115213 -0.099777 -0.037356
v 0.299236 -0.139505 -0.037356
v 0.270433 -0.189394 -0.037356
v 0.236931 -0.103533 -0.037356
v 0.208127 -0.153421 -0.037356
v 0.297379 -0.068924 -0.037356
v 0.208379 -0.223076 -0.037356
v 0.146474 0.117826 -0.037356
v 0.148346 0.223057 -0.037356
v 0.267346 0.016943 -0.037356
v 0.175277 0.067937 -0.037356
v 0.115213 0.099777 -0.037356
v 0.144016 0.049889 -0.037356
v 0.270433 0.189393 -0.037356
v 0.299236 0.139505 -0.037356
v 0.208127 0.153421 -0.037356
v 0.236931 0.103533 -0.037356
v 0.208379 0.223076 -0.037356
v 0.297379 0.068924 -0.037356
v 0.100000 0.000000 -0.037356
v -0.050000 -0.086603 -0.037356
v -0.050000 0.086603 -0.037356
v 0.050000 -0.086603 -0.037356
v -0.100000 0.000000 -0.037356
v 0.050000 0.086603 -0.037356
v 0.050000 0.028868 -0.037356
v 0.050000 -0.028868 -0.037356
v -0.000000 -0.057735 -0.037356
v -0.050000 0.028868 -0.037356
v 0.000000 0.057735 -0.037356
v -0.050000 -0.028868 -0.037356
v 0.172819 0.000000 -0.037356
v -0.086410 -0.149666 -0.037356
v -0.086410 0.149666 -0.037356
v 0.086410 -0.149666 -0.037356
v -0.172819 0.000000 -0.037356
v 0.086410 0.149666 -0.037356
v -0.028803 0.185763 -0.037356
v -0.119000 0.240000 -0.037356
v 0.119000 0.240000 -0.037356
v 0.028803 0.185763 -0.037356
v -0.028803 0.149666 -0.037356
v 0.028803 0.149666 -0.037356
v -0.028803 0.328898 -0.037356
v 0.028803 0.328898 -0.037356
v -0.028803 0.256954 -0.037356
v 0.028803 0.256954 -0.037356
v -0.089000 0.292000 -0.037356
v 0.089000 0.292000 -0.037356
vt 0.089271 0.462241
vt 0.089271 0.549816
vt 0.013075 0.549816
vt 0.013075 0.462241
vt 0.164668 0.462241
vt 0.164668 0.549816
vt 0.107227 0.686935
vt 0.052154 0.641328
vt 0.052154 0.370728
vt 0.107227 0.325121
vt 0.251758 0.145840
vt 0.198921 0.189628
vt 0.160824 0.094909
vt 0.213660 0.051122
vt 0.289457 0.239567
vt 0.236620 0.283354
vt 0.125171 0.280509
vt 0.125151 0.189244
vt 0.288412 0.053944
vt 0.343465 0.099602
vt 0.198921 0.822429
vt 0.251758 0.866216
vt 0.213660 0.960935
vt 0.160824 0.917147
vt 0.236620 0.728702
vt 0.289457 0.772490
vt 0.343465 0.912455
vt 0.288412 0.958112
vt 0.125151 0.822812
vt 0.125171 0.731548
vt 0.471059 0.866216
vt 0.523896 0.822429
vt 0.561994 0.917147
vt 0.509157 0.960935
vt 0.433361 0.772490
vt 0.486197 0.728702
vt 0.597646 0.731548
vt 0.597667 0.822812
vt 0.434405 0.958112
vt 0.379353 0.912455
vt 0.633547 0.549816
vt 0.633547 0.462241
vt 0.709742 0.462241
vt 0.709742 0.549816
vt 0.558149 0.549816
vt 0.558149 0.462241
vt 0.615590 0.325121
vt 0.670663 0.370728
vt 0.670663 0.641328
vt 0.615590 0.686935
vt 0.361409 0.658051
vt 0.391982 0.582040
vt 0.427053 0.669233
vt 0.361409 0.768753
vt 0.330835 0.582040
vt 0.308572 0.637390
vt 0.269689 0.582040
vt 0.202899 0.637390
vt 0.300262 0.506028
vt 0.230120 0.506028
vt 0.269689 0.430017
vt 0.202899 0.374666
vt 0.330835 0.430017
vt 0.295765 0.342824
vt 0.361409 0.354006
vt 0.361409 0.243304
vt 0.391982 0.430017
vt 0.414245 0.374666
vt 0.453129 0.430017
vt 0.519918 0.374666
vt 0.422555 0.506028
vt 0.492697 0.506028
vt 0.453129 0.582040
vt 0.519918 0.637390
vt 0.523896 0.189628
vt 0.471059 0.145840
vt 0.509157 0.051122
vt 0.561994 0.094909
vt 0.486197 0.283354
vt 0.433361 0.239567
vt 0.379353 0.099602
vt 0.434405 0.053944
vt 0.597667 0.189245
vt 0.597646 0.280509
vt 0.519918 0.549816
vt 0.519918 0.462241
vt 0.467082 0.330879
vt 0.414245 0.287091
vt 0.308572 0.287091
vt 0.255736 0.330879
vt 0.202899 0.462241
vt 0.202899 0.549816
vt 0.255736 0.681178
vt 0.308572 0.724965
vt 0.414245 0.724965
vt 0.467082 0.681178
vt 0.519782 0.274480
vt 0.519782 0.183216
vt 0.480218 0.183216
vt 0.480218 0.274480
vt 0.375212 0.528395
vt 0.263762 0.528395
vt 0.263762 0.471605
vt 0.375212 0.471605
vt 0.519782 0.324850
vt 0.519782 0.277326
vt 0.480218 0.277326
vt 0.480218 0.324850
vt 0.341490 0.528395
vt 0.394327 0.528395
vt 0.394327 0.471605
vt 0.341490 0.471605
vt 0.519782 0.456213
vt 0.519782 0.368638
vt 0.480218 0.368638
vt 0.480218 0.456213
vt 0.303260 0.528395
vt 0.341490 0.528395
vt 0.341490 0.471605
vt 0.303260 0.471605
vt 0.519782 0.319093
vt 0.519782 0.456213
vt 0.480218 0.456213
vt 0.480218 0.319093
vt 0.190746 0.528395
vt 0.245818 0.528395
vt 0.245818 0.471605
vt 0.190745 0.471605
vt 0.519782 0.456213
vt 0.519782 0.364700
vt 0.480218 0.364700
vt 0.480218 0.456213
vt 0.151667 0.528395
vt 0.227862 0.528395
vt 0.227862 0.471605
vt 0.151667 0.471605
vt 0.519782 0.543787
vt 0.519782 0.456213
vt 0.480218 0.456213
vt 0.480218 0.543787
vt 0.227862 0.528395
vt 0.151667 0.528395
vt 0.151667 0.471605
vt 0.227862 0.471605
vt 0.519782 0.635300
vt 0.519782 0.543787
vt 0.480218 0.543787
vt 0.480218 0.635300
vt 0.245818 0.528395
vt 0.190746 0.528395
vt 0.190745 0.471605
vt 0.245818 0.471605
vt 0.519782 0.543787
vt 0.519782 0.680907
vt 0.480218 0.680907
vt 0.480218 0.543787
vt 0.341490 0.528395
vt 0.303260 0.528395
vt 0.303260 0.471605
vt 0.341490 0.471605
vt 0.519782 0.631362
vt 0.519782 0.543787
vt 0.480218 0.543787
vt 0.480218 0.631362
vt 0.394327 0.528395
vt 0.341490 0.528395
vt 0.341490 0.471605
vt 0.394327 0.471605
vt 0.519782 0.722674
vt 0.519782 0.675150
vt 0.480218 0.675149
vt 0.480218 0.722674
vt 0.263762 0.528395
vt 0.375212 0.528395
vt 0.375212 0.471605
vt 0.263762 0.471605
vt 0.519782 0.816784
vt 0.519782 0.725520
vt 0.480218 0.725520
vt 0.480218 0.816784
vt 0.337513 0.528395
vt 0.263742 0.528395
vt 0.263742 0.471605
vt 0.337513 0.471605
vt 0.519782 0.911119
vt 0.519782 0.816401
vt 0.480218 0.816401
vt 0.480218 0.911119
vt 0.352252 0.528395
vt 0.299415 0.528395
vt 0.299415 0.471605
vt 0.352252 0.471605
vt 0.519782 0.860188
vt 0.519782 0.954906
vt 0.480218 0.954906
vt 0.480218 0.860188
vt 0.519782 0.952084
vt 0.480218 0.952084
vt 0.482056 0.528395
vt 0.427003 0.528395
vt 0.427003 0.471605
vt 0.482056 0.471605
vt 0.519782 0.766461
vt 0.519782 0.906426
vt 0.480218 0.906426
vt 0.480218 0.766461
vt 0.519782 0.718937
vt 0.480218 0.718937
vt 0.500000 0.528395
vt 0.447163 0.528395
vt 0.447163 0.471605
vt 0.500000 0.471605
vt 0.552837 0.528395
vt 0.552837 0.471605
vt 0.519782 0.766461
vt 0.519782 0.718937
vt 0.480218 0.718937
vt 0.480218 0.766461
vt 0.519782 0.906426
vt 0.480218 0.906426
vt 0.572996 0.528395
vt 0.517944 0.528395
vt 0.517944 0.471605
vt 0.572996 0.471605
vt 0.519782 0.860188
vt 0.519782 0.952084
vt 0.480218 0.952084
vt 0.480218 0.860188
vt 0.519782 0.954906
vt 0.480218 0.954906
vt 0.700585 0.528395
vt 0.647748 0.528395
vt 0.647748 0.471605
vt 0.700585 0.471605
vt 0.519782 0.816401
vt 0.519782 0.911119
vt 0.480218 0.911119
vt 0.480218 0.816401
vt 0.736258 0.528395
vt 0.662487 0.528395
vt 0.662487 0.471605
vt 0.736258 0.471605
vt 0.519782 0.725520
vt 0.519782 0.816784
vt 0.480218 0.816784
vt 0.480218 0.725520
vt 0.624788 0.528395
vt 0.736238 0.528395
vt 0.736238 0.471605
vt 0.624788 0.471605
vt 0.519782 0.675150
vt 0.519782 0.722674
vt 0.480218 0.722674
vt 0.480218 0.675150
vt 0.658510 0.528395
vt 0.605673 0.528395
vt 0.605673 0.471605
vt 0.658510 0.471605
vt 0.519782 0.543787
vt 0.519782 0.631362
vt 0.480218 0.631362
vt 0.480218 0.543787
vt 0.696740 0.528395
vt 0.658510 0.528395
vt 0.658510 0.471605
vt 0.696740 0.471605
vt 0.519782 0.680907
vt 0.519782 0.543787
vt 0.480218 0.543787
vt 0.480218 0.680907
vt 0.809255 0.528395
vt 0.754182 0.528395
vt 0.754182 0.471605
vt 0.809254 0.471605
vt 0.519782 0.543787
vt 0.519782 0.635300
vt 0.480218 0.635300
vt 0.480218 0.543787
vt 0.848333 0.528395
vt 0.772138 0.528395
vt 0.772138 0.471605
vt 0.848333 0.471605
vt 0.519782 0.456213
vt 0.519782 0.543787
vt 0.480218 0.543787
vt 0.480218 0.456213
vt 0.772138 0.528395
vt 0.848333 0.528395
vt 0.848333 0.471605
vt 0.772138 0.471605
vt 0.519782 0.364700
vt 0.519782 0.456213
vt 0.480218 0.456213
vt 0.480218 0.364700
vt 0.754182 0.528395
vt 0.809255 0.528395
vt 0.809254 0.471605
vt 0.754182 0.471605
vt 0.519782 0.456213
vt 0.519782 0.319093
vt 0.480218 0.319093
vt 0.480218 0.456213
vt 0.658510 0.528395
vt 0.696740 0.528395
vt 0.696740 0.471605
vt 0.658510 0.471605
vt 0.519782 0.368638
vt 0.519782 0.456213
vt 0.480218 0.456213
vt 0.480218 0.368638
vt 0.605673 0.528395
vt 0.658510 0.528395
vt 0.658510 0.471605
vt 0.605673 0.471605
vt 0.519782 0.277326
vt 0.519782 0.324850
vt 0.480218 0.324851
vt 0.480218 0.277326
vt 0.736238 0.528395
vt 0.624788 0.528395
vt 0.624788 0.471605
vt 0.736238 0.471605
vt 0.519782 0.183216
vt 0.519782 0.274480
vt 0.480218 0.274480
vt 0.480218 0.183216
vt 0.662487 0.528395
vt 0.736258 0.528395
vt 0.736258 0.471605
vt 0.662487 0.471605
vt 0.519782 0.088881
vt 0.519782 0.183599
vt 0.480218 0.183599
vt 0.480218 0.088881
vt 0.647748 0.528395
vt 0.700585 0.528395
vt 0.700585 0.471605
vt 0.647748 0.471605
vt 0.519782 0.139812
vt 0.519782 0.045094
vt 0.480218 0.045094
vt 0.480218 0.139812
vt 0.519782 0.047916
vt 0.480218 0.047916
vt 0.517944 0.528395
vt 0.572997 0.528395
vt 0.572996 0.471605
vt 0.517944 0.471605
vt 0.519782 0.233539
vt 0.519782 0.093574
vt 0.480218 0.093574
vt 0.480218 0.233539
vt 0.519782 0.281063
vt 0.480218 0.281063
vt 0.500000 0.528395
vt 0.552837 0.528395
vt 0.552837 0.471605
vt 0.500000 0.471605
vt 0.447163 0.528395
vt 0.447163 0.471605
vt 0.519782 0.233539
vt 0.519782 0.281063
vt 0.480218 0.281063
vt 0.480218 0.233539
vt 0.519782 0.093574
vt 0.480218 0.093574
vt 0.427004 0.528395
vt 0.482056 0.528395
vt 0.482056 0.471605
vt 0.427004 0.471605
vt 0.519782 0.139812
vt 0.519782 0.047916
vt 0.480218 0.047916
vt 0.480218 0.139812
vt 0.519782 0.045094
vt 0.480218 0.045094
vt 0.299415 0.528395
vt 0.352252 0.528395
vt 0.352252 0.471605
vt 0.299415 0.471605
vt 0.519782 0.183599
vt 0.519782 0.088881
vt 0.480218 0.088881
vt 0.480218 0.183599
vt 0.263742 0.528395
vt 0.337513 0.528395
vt 0.337513 0.471605
vt 0.263742 0.471605
vt 0.519782 0.652023
vt 0.519782 0.576011
vt 0.480218 0.576011
vt 0.480218 0.652023
vt 0.519782 0.576011
vt 0.480218 0.576011
vt 0.408280 0.528395
vt 0.469427 0.528395
vt 0.469427 0.471605
vt 0.408280 0.471605
vt 0.519782 0.500000
vt 0.519782 0.576011
vt 0.480218 0.576011
vt 0.480218 0.500000
vt 0.519782 0.423989
vt 0.480218 0.423989
vt 0.469427 0.528395
vt 0.408280 0.528395
vt 0.408280 0.471605
vt 0.469427 0.471605
vt 0.519782 0.347977
vt 0.519782 0.423989
vt 0.480218 0.423989
vt 0.480218 0.347977
vt 0.519782 0.423989
vt 0.480218 0.423989
vt 0.591720 0.528395
vt 0.530573 0.528395
vt 0.530573 0.471605
vt 0.591720 0.471605
vt 0.519782 0.500000
vt 0.519782 0.423989
vt 0.480218 0.423989
vt 0.480218 0.500000
vt 0.519782 0.576011
vt 0.480218 0.576011
vt 0.530573 0.528395
vt 0.591720 0.528395
vt 0.591720 0.471605
vt 0.530573 0.471605
vt 0.251758 0.866216
vt 0.288412 0.958112
vt 0.343465 0.912455
vt 0.289457 0.772490
vt 0.308572 0.724965
vt 0.361409 0.768753
vt 0.361409 0.658051
vt 0.330835 0.582040
vt 0.269689 0.582040
vt 0.202899 0.637390
vt 0.255736 0.681178
vt 0.236620 0.728702
vt 0.125171 0.731548
vt 0.125151 0.822812
vt 0.198921 0.822429
vt 0.160824 0.917147
vt 0.213660 0.960935
vt 0.523896 0.822429
vt 0.597667 0.822812
vt 0.597646 0.731548
vt 0.486197 0.728702
vt 0.467082 0.681178
vt 0.519918 0.637390
vt 0.453129 0.582040
vt 0.391982 0.582040
vt 0.414245 0.724965
vt 0.433361 0.772490
vt 0.379353 0.912455
vt 0.434405 0.958112
vt 0.471059 0.866216
vt 0.509157 0.960935
vt 0.561994 0.917147
vt 0.089271 0.549816
vt 0.052154 0.641328
vt 0.107227 0.686935
vt 0.164668 0.549816
vt 0.202899 0.549816
vt 0.300262 0.506028
vt 0.269689 0.430017
vt 0.202899 0.374666
vt 0.202899 0.462241
vt 0.164668 0.462241
vt 0.107227 0.325121
vt 0.052154 0.370728
vt 0.089271 0.462241
vt 0.013075 0.462241
vt 0.013075 0.549816
vt 0.198921 0.189628
vt 0.125151 0.189245
vt 0.125171 0.280509
vt 0.236620 0.283354
vt 0.255736 0.330879
vt 0.330835 0.430017
vt 0.361409 0.354006
vt 0.361409 0.243304
vt 0.308572 0.287091
vt 0.289457 0.239567
vt 0.343465 0.099602
vt 0.288412 0.053944
vt 0.251758 0.145840
vt 0.213660 0.051122
vt 0.160824 0.094909
vt 0.391982 0.430017
vt 0.453129 0.430017
vt 0.519918 0.374666
vt 0.467082 0.330879
vt 0.486197 0.283354
vt 0.597646 0.280509
vt 0.597667 0.189245
vt 0.523896 0.189628
vt 0.561994 0.094909
vt 0.509157 0.051122
vt 0.471059 0.145840
vt 0.434405 0.053944
vt 0.379353 0.099602
vt 0.433361 0.239567
vt 0.414245 0.287091
vt 0.633547 0.462241
vt 0.670663 0.370728
vt 0.615590 0.325121
vt 0.558149 0.462241
vt 0.519918 0.462241
vt 0.422555 0.506028
vt 0.519918 0.549816
vt 0.558149 0.549816
vt 0.615590 0.686935
vt 0.670663 0.641328
vt 0.633547 0.549816
vt 0.709742 0.549816
vt 0.709742 0.462241
vn -0.0000 -0.0000 1.0000
vn 0.8659 -0.5003 -0.0000
vn -0.4845 -0.8748 0.0000
vn 0.5000 -0.8660 0.0000
vn 0.8660 0.5000 -0.0000
vn 0.8660 -0.5000 0.0000
vn 0.5000 0.8660 -0.0000
vn -0.4845 0.8748 0.0000
vn 0.8659 0.5003 -0.0000
vn 0.4969 -0.8678 -0.0000
vn -0.5000 -0.8660 0.0000
vn 1.0000 0.0036 -0.0000
vn -0.0003 -1.0000 -0.0000
vn -0.9998 -0.0178 0.0000
vn 0.0000 -1.0000 -0.0000
vn 1.0000 -0.0000 -0.0000
vn 0.5153 0.8570 -0.0000
vn 0.8662 -0.4997 0.0000
vn -0.5031 -0.8642 0.0000
vn -1.0000 0.0000 0.0000
vn 0.5031 -0.8642 -0.0000
vn -0.8662 -0.4997 0.0000
vn -0.5153 0.8570 0.0000
vn -0.8660 -0.5000 0.0000
vn 0.9998 -0.0178 0.0000
vn 0.0003 -1.0000 0.0000
vn -1.0000 0.0036 0.0000
vn -0.5000 0.8660 0.0000
vn -0.4969 -0.8678 0.0000
vn -0.8659 0.5003 0.0000
vn 0.4845 0.8748 -0.0000
vn -0.8660 0.5000 0.0000
vn 0.4845 -0.8748 -0.0000
vn -0.8659 -0.5003 0.0000
vn -0.4969 0.8678 0.0000
vn -1.0000 -0.0036 -0.0000
vn 0.0003 1.0000 0.0000
vn 0.9998 0.0178 0.0000
vn 0.0000 1.0000 0.0000
vn -0.5153 -0.8570 0.0000
vn -0.8662 0.4997 0.0000
vn 0.5031 0.8642 0.0000
vn -0.5031 0.8642 -0.0000
vn 0.8662 0.4997 -0.0000
vn 0.5153 -0.8570 -0.0000
vn -0.9998 0.0178 -0.0000
vn -0.0003 1.0000 -0.0000
vn 1.0000 -0.0036 0.0000
vn 0.4969 0.8678 -0.0000
vn -0.0000 -0.0000 -1.0000
usemtl Material
s off
f 10/1/1 9/2/1 7/3/1 8/4/1
f 4/5/1 1/6/1 2/7/1 11/8/1 9/2/1 10/1/1 12/9/1 3/10/1
f 22/11/1 21/12/1 19/13/1 20/14/1
f 16/15/1 13/16/1 14/17/1 23/18/1 21/12/1 22/11/1 24/19/1 15/20/1
f 34/21/1 33/22/1 31/23/1 32/24/1
f 28/25/1 25/26/1 26/27/1 35/28/1 33/22/1 34/21/1 36/29/1 27/30/1
f 46/31/1 45/32/1 43/33/1 44/34/1
f 40/35/1 37/36/1 38/37/1 47/38/1 45/32/1 46/31/1 48/39/1 39/40/1
f 58/41/1 57/42/1 55/43/1 56/44/1
f 52/45/1 49/46/1 50/47/1 59/48/1 57/42/1 58/41/1 60/49/1 51/50/1
f 64/51/1 68/52/1 80/53/1 76/54/1
f 69/55/1 64/51/1 76/54/1 81/56/1
f 62/57/1 69/55/1 81/56/1 74/58/1
f 72/59/1 62/57/1 74/58/1 84/60/1
f 65/61/1 72/59/1 84/60/1 77/62/1
f 70/63/1 65/61/1 77/62/1 82/64/1
f 63/65/1 70/63/1 82/64/1 75/66/1
f 71/67/1 63/65/1 75/66/1 83/68/1
f 66/69/1 71/67/1 83/68/1 78/70/1
f 67/71/1 66/69/1 78/70/1 79/72/1
f 61/73/1 67/71/1 79/72/1 73/74/1
f 68/52/1 61/73/1 73/74/1 80/53/1
f 94/75/1 93/76/1 91/77/1 92/78/1
f 88/79/1 85/80/1 86/81/1 95/82/1 93/76/1 94/75/1 96/83/1 87/84/1
f 49/46/1 52/45/1 54/85/1 73/74/1 79/72/1 78/70/1 53/86/1
f 88/79/1 90/87/1 78/70/1 83/68/1 75/66/1 89/88/1 85/80/1
f 13/16/1 16/15/1 18/89/1 75/66/1 82/64/1 77/62/1 17/90/1
f 1/6/1 4/5/1 6/91/1 77/62/1 84/60/1 74/58/1 5/92/1
f 28/25/1 30/93/1 74/58/1 81/56/1 76/54/1 29/94/1 25/26/1
f 40/35/1 42/95/1 76/54/1 80/53/1 73/74/1 41/96/1 37/36/1
f 147/97/2 156/98/2 23/99/2 14/100/2
f 148/101/3 147/102/3 14/103/3 13/104/3
f 150/105/4 148/106/4 13/107/4 17/108/4
f 169/109/5 150/110/5 17/111/5 77/112/5
f 137/113/6 169/114/6 77/115/6 6/116/6
f 133/117/7 137/118/7 6/119/7 4/120/7
f 134/121/8 133/122/8 4/123/8 3/124/8
f 143/125/9 134/126/9 3/127/9 12/128/9
f 141/129/10 143/130/10 12/131/10 10/132/10
f 139/133/7 141/134/7 10/135/7 8/136/7
f 140/137/6 139/138/6 8/139/6 7/140/6
f 142/141/11 140/142/11 7/143/11 9/144/11
f 144/145/12 142/146/12 9/147/12 11/148/12
f 135/149/13 144/150/13 11/151/13 2/152/13
f 136/153/14 135/154/14 2/155/14 1/156/14
f 138/157/11 136/158/11 1/159/11 5/160/11
f 172/161/6 138/162/6 5/163/6 74/164/6
f 125/165/15 172/166/15 74/167/15 30/168/15
f 121/169/16 125/170/16 30/171/16 28/172/16
f 122/173/17 121/174/17 28/175/17 27/176/17
f 131/177/18 122/178/18 27/179/18 36/180/18
f 129/181/19 131/182/19 36/183/19 34/184/19
f 127/185/16 129/186/16 34/187/16 32/188/16
f 128/189/15 127/190/15 32/191/15 31/192/15
f 130/193/20 128/194/20 31/195/20 33/196/20
f 132/197/21 130/193/21 33/196/21 35/198/21
f 123/199/22 132/200/22 35/201/22 26/202/22
f 124/203/23 123/204/23 26/205/23 25/206/23
f 126/207/20 124/203/20 25/206/20 29/208/20
f 170/209/15 126/210/15 29/211/15 76/212/15
f 101/213/24 170/209/24 76/212/24 42/214/24
f 97/215/4 101/216/4 42/217/4 40/218/4
f 98/219/25 97/215/25 40/218/25 39/220/25
f 107/221/26 98/222/26 39/223/26 48/224/26
f 105/225/27 107/226/27 48/227/27 46/228/27
f 103/229/4 105/225/4 46/228/4 44/230/4
f 104/231/24 103/232/24 44/233/24 43/234/24
f 106/235/28 104/236/28 43/237/28 45/238/28
f 108/239/29 106/240/29 45/241/29 47/242/29
f 99/243/30 108/244/30 47/245/30 38/246/30
f 100/247/31 99/248/31 38/249/31 37/250/31
f 102/251/28 100/252/28 37/253/28 41/254/28
f 173/255/24 102/256/24 41/257/24 73/258/24
f 113/259/32 173/260/32 73/261/32 54/262/32
f 109/263/11 113/264/11 54/265/11 52/266/11
f 110/267/33 109/268/33 52/269/33 51/270/33
f 119/271/34 110/272/34 51/273/34 60/274/34
f 117/275/35 119/276/35 60/277/35 58/278/35
f 115/279/11 117/280/11 58/281/11 56/282/11
f 116/283/32 115/284/32 56/285/32 55/286/32
f 118/287/7 116/288/7 55/289/7 57/290/7
f 120/291/36 118/292/36 57/293/36 59/294/36
f 111/295/37 120/296/37 59/297/37 50/298/37
f 112/299/38 111/300/38 50/301/38 49/302/38
f 114/303/7 112/304/7 49/305/7 53/306/7
f 171/307/32 114/308/32 53/309/32 78/310/32
f 179/311/39 171/312/39 78/313/39 90/314/39
f 175/315/20 179/316/20 90/317/20 88/318/20
f 176/319/40 175/320/40 88/321/40 87/322/40
f 185/323/41 176/324/41 87/325/41 96/326/41
f 183/327/42 185/328/42 96/329/42 94/330/42
f 181/331/20 183/332/20 94/333/20 92/334/20
f 182/335/39 181/336/39 92/337/39 91/338/39
f 184/339/16 182/340/16 91/341/16 93/342/16
f 186/343/43 184/339/43 93/342/43 95/344/43
f 177/345/44 186/346/44 95/347/44 86/348/44
f 178/349/45 177/350/45 86/351/45 85/352/45
f 180/353/16 178/349/16 85/352/16 89/354/16
f 174/355/39 180/356/39 89/357/39 75/358/39
f 149/359/5 174/355/5 75/358/5 18/360/5
f 145/361/28 149/362/28 18/363/28 16/364/28
f 146/365/46 145/361/46 16/364/46 15/366/46
f 155/367/47 146/368/47 15/369/47 24/370/47
f 153/371/48 155/372/48 24/373/48 22/374/48
f 151/375/28 153/371/28 22/374/28 20/376/28
f 152/377/5 151/378/5 20/379/5 19/380/5
f 154/381/4 152/382/4 19/383/4 21/384/4
f 156/385/49 154/386/49 21/387/49 23/388/49
f 158/389/16 168/390/16 68/391/16 64/392/16
f 165/393/28 158/389/28 64/392/28 69/394/28
f 160/395/7 165/396/7 69/397/7 62/398/7
f 164/399/20 160/400/20 62/401/20 72/402/20
f 157/403/28 164/399/28 72/402/28 65/404/28
f 163/405/11 157/406/11 65/407/11 70/408/11
f 162/409/20 163/410/20 70/411/20 63/412/20
f 167/413/4 162/409/4 63/412/4 71/414/4
f 159/415/11 167/416/11 71/417/11 66/418/11
f 166/419/16 159/420/16 66/421/16 67/422/16
f 161/423/4 166/419/4 67/422/4 61/424/4
f 168/425/7 161/426/7 61/427/7 68/428/7
f 130/429/50 132/430/50 123/431/50 124/432/50 126/433/50 170/434/50 158/435/50 165/436/50 160/437/50 172/438/50 125/439/50 121/440/50 122/441/50 131/442/50 129/443/50 127/444/50 128/445/50
f 106/446/50 108/447/50 99/448/50 100/449/50 102/450/50 173/451/50 161/452/50 168/453/50 158/435/50 170/434/50 101/454/50 97/455/50 98/456/50 107/457/50 105/458/50 103/459/50 104/460/50
f 142/461/50 144/462/50 135/463/50 136/464/50 138/465/50 172/438/50 160/437/50 164/466/50 157/467/50 169/468/50 137/469/50 133/470/50 134/471/50 143/472/50 141/473/50 139/474/50 140/475/50
f 154/476/50 156/477/50 147/478/50 148/479/50 150/480/50 169/468/50 157/467/50 163/481/50 162/482/50 174/483/50 149/484/50 145/485/50 146/486/50 155/487/50 153/488/50 151/489/50 152/490/50
f 162/482/50 167/491/50 159/492/50 171/493/50 179/494/50 175/495/50 176/496/50 185/497/50 183/498/50 181/499/50 182/500/50 184/501/50 186/502/50 177/503/50 178/504/50 180/505/50 174/483/50
f 118/506/50 120/507/50 111/508/50 112/509/50 114/510/50 171/493/50 159/492/50 166/511/50 161/452/50 173/451/50 113/512/50 109/513/50 110/514/50 119/515/50 117/516/50 115/517/50 116/518/50
