# Blender v2.81 (sub 16) OBJ File: 'Square Border.blend'
# www.blender.org
mtllib Square Border.mtl
o Cube.001_Cube.002
v -1.177901 -0.656360 1.040477
v -1.177901 1.343640 1.040477
v -1.177901 -0.656360 0.867548
v -1.177901 1.343640 0.867548
v 0.822099 -0.656360 1.040477
v 0.822099 1.343640 1.040477
v 0.822099 -0.656360 0.867548
v 0.822099 1.343640 0.867548
v -0.964293 -0.442752 1.040477
v -0.964293 1.130033 1.040477
v -0.964293 -0.442752 0.867548
v -0.964293 1.130033 0.867548
v 0.608492 -0.442752 1.040477
v 0.608492 1.130033 1.040477
v 0.608492 -0.442752 0.867548
v 0.608492 1.130033 0.867548
vt 0.161770 0.341548
vt 0.389612 0.985498
vt 0.419897 0.947926
vt 0.192055 0.303976
vt 0.610388 0.014502
vt 0.838230 0.658452
vt 0.824612 0.684062
vt 0.596770 0.040112
vt 0.389612 0.985498
vt 0.838230 0.658452
vt 0.610388 0.014502
vt 0.389612 0.985498
vt 0.161770 0.341548
vt 0.610388 0.014502
vt 0.520771 0.958437
vt 0.184729 0.420884
vt 0.200896 0.407592
vt 0.536937 0.945145
vt 0.461396 0.064425
vt 0.797437 0.601978
vt 0.815271 0.579116
vt 0.479229 0.041563
vt 0.437526 0.950568
vt 0.209684 0.306618
vt 0.562474 0.049432
vt 0.790316 0.693382
vt 0.790316 0.693382
vt 0.562474 0.049432
vt 0.209684 0.306618
vt 0.437526 0.950568
vt 0.481190 0.991332
vt 0.842294 0.527000
vt 0.769178 0.521233
vt 0.485208 0.886380
vt 0.230822 0.478767
vt 0.157706 0.473000
vt 0.518810 0.008668
vt 0.514792 0.113620
vt 0.518810 0.008668
vt 0.842294 0.527000
vt 0.769178 0.521233
vt 0.514792 0.113620
vt 0.230822 0.478767
vt 0.157706 0.473000
vt 0.481190 0.991332
vt 0.485208 0.886380
vn -1.0000 0.0000 0.0000
vn 1.0000 0.0000 0.0000
vn 0.0000 -1.0000 0.0000
vn 0.0000 1.0000 0.0000
vn 0.0000 0.0000 -1.0000
vn 0.0000 0.0000 1.0000
usemtl Material
s off
f 1/1/1 2/2/1 4/3/1 3/4/1
f 7/5/2 8/6/2 6/7/2 5/8/2
f 3/9/3 7/10/3 5/11/3 1/1/3
f 8/6/4 4/12/4 2/13/4 6/14/4
f 9/15/2 11/16/2 12/17/2 10/18/2
f 15/19/1 13/20/1 14/21/1 16/22/1
f 11/23/4 9/24/4 13/25/4 15/26/4
f 16/27/3 14/28/3 10/29/3 12/30/3
f 4/31/5 8/32/5 16/33/5 12/34/5
f 11/35/5 3/36/5 4/31/5 12/34/5
f 7/37/5 3/36/5 11/35/5 15/38/5
f 16/33/5 8/32/5 7/37/5 15/38/5
f 5/39/6 6/40/6 14/41/6 13/42/6
f 9/43/6 1/44/6 5/39/6 13/42/6
f 2/45/6 1/44/6 9/43/6 10/46/6
f 14/41/6 6/40/6 2/45/6 10/46/6
